# xmcd CD database file
#
# Track frame offsets:
#	182
#	11392
#	29235
#
# Disc length: 595 seconds
#
# Revision: 0
# Processed by: cddbd v1.5.1PL0 Copyright (c) Steve Scherf et al.
# Submitted via: CDex 1.60beta1
#
DISCID=1d025103
DTITLE=Ricky Skaggs - Solid Ground (Promo)
DYEAR=1995
DGENRE=Country
TTITLE0=Solid Ground
TTITLE1=Cat's In The Cradle
TTITLE2=Back Where We Belong
EXTD=YEAR: 1995
EXTT0=
EXTT1=
EXTT2=
PLAYORDER=
